HIERARCHY
ROOT Hips
{
    OFFSET 0.0 0.0 0.0
    CHANNELS 6 Xposition Yposition Zposition Zrotation Xrotation Yrotation
    JOINT LeftHipJoint
    {
        OFFSET 0.1 0.0 0.0
        CHANNELS 3 Zrotation Xrotation Yrotation
        JOINT LeftUpLeg
        {
            OFFSET 125.25935893183491 0.0 0.0
            CHANNELS 3 Zrotation Xrotation Yrotation
            JOINT LeftLeg
            {
                OFFSET 0.0 0.0 -416.831723546903
                CHANNELS 3 Zrotation Xrotation Yrotation
                JOINT LeftFoot
                {
                    OFFSET 0.0 0.0 -407.95481015074466
                    CHANNELS 3 Zrotation Xrotation Yrotation
                    End Site
                    {
                        OFFSET 0.0 -0.1 0.0
                    }
                }
            }
        }
    }
    JOINT LowerBack
    {
        OFFSET 0.0 0.0 0.1
        CHANNELS 3 Zrotation Xrotation Yrotation
        JOINT Spine
        {
            OFFSET 0.0 0.0 220.28783110687024
            CHANNELS 3 Zrotation Xrotation Yrotation
            JOINT Spine1
            {
                OFFSET 0.0 0.0 250.19097316587806
                CHANNELS 3 Zrotation Xrotation Yrotation
                JOINT LeftShoulder
                {
                    OFFSET 0.1 0.0 0.0
                    CHANNELS 3 Zrotation Xrotation Yrotation
                    JOINT LeftArm
                    {
                        OFFSET 141.06258840333174 0.0 0.0
                        CHANNELS 3 Zrotation Xrotation Yrotation
                        JOINT LeftForeArm
                        {
                            OFFSET 259.6272555528701 0.0 0.0
                            CHANNELS 3 Zrotation Xrotation Yrotation
                            JOINT LeftHand
                            {
                                OFFSET 241.86635638548785 0.0 0.0
                                CHANNELS 3 Zrotation Xrotation Yrotation
                                End Site
                                {
                                    OFFSET 0.1 0.0 0.0
                                }
                            }
                        }
                    }
                }
                JOINT Neck
                {
                    OFFSET 0.0 0.0 0.1
                    CHANNELS 3 Zrotation Xrotation Yrotation
                    JOINT Neck1
                    {
                        OFFSET 0.0 0.0 104.19502535742411
                        CHANNELS 3 Zrotation Xrotation Yrotation
                        End Site
                        {
                            OFFSET 0.0 0.0 117.60325641060302
                        }
                    }
                }
                JOINT RightShoulder
                {
                    OFFSET -0.1 0.0 0.0
                    CHANNELS 3 Zrotation Xrotation Yrotation
                    JOINT RightArm
                    {
                        OFFSET -141.06258840333174 0.0 0.0
                        CHANNELS 3 Zrotation Xrotation Yrotation
                        JOINT RightForeArm
                        {
                            OFFSET -259.6272555528701 0.0 0.0
                            CHANNELS 3 Zrotation Xrotation Yrotation
                            JOINT RightHand
                            {
                                OFFSET -241.86635638548785 0.0 0.0
                                CHANNELS 3 Zrotation Xrotation Yrotation
                                End Site
                                {
                                    OFFSET -0.1 0.0 0.0
                                }
                            }
                        }
                    }
                }
            }
        }
    }
    JOINT RightHipJoint
    {
        OFFSET -0.1 0.0 0.0
        CHANNELS 3 Zrotation Xrotation Yrotation
        JOINT RightUpLeg
        {
            OFFSET -125.25935893183491 0.0 0.0
            CHANNELS 3 Zrotation Xrotation Yrotation
            JOINT RightLeg
            {
                OFFSET 0.0 0.0 -416.831723546903
                CHANNELS 3 Zrotation Xrotation Yrotation
                JOINT RightFoot
                {
                    OFFSET 0.0 0.0 -407.95481015074466
                    CHANNELS 3 Zrotation Xrotation Yrotation
                    End Site
                    {
                        OFFSET 0.0 -0.1 0.0
                    }
                }
            }
        }
    }
}
MOTION
Frames: 10
Frame Time: 0.03333333333333333
0.0 0.0 825.4174449602142 26.786310655359767 0.7607007497954936 5.113574419380288 0.0 0.0 2.3605679276487037e-16 0.21798779196768206 -13.957646787569837 -0.8522670169122463 -0.8664425788835427 26.24377091082171 0.6775907689254629 0.0 0.0 0.0 0.0 0.0 2.3605679276487037e-16 -0.039853503783302074 2.605971356902318 1.0069493792453437 3.4003623543956083 -2.0459497865999615e-16 -1.9279933310573983e-16 -1.3793457181406746e-33 1.9878466759146977e-16 7.951386703658791e-16 -29.748454943606543 14.174755994632608 74.18136583073141 -58.79363459929385 6.2837125832291414e-15 -4.673624949346698e-15 -3.1805546814635176e-15 -3.1805546814635176e-15 -8.827812596100317e-32 -1.3793457181406746e-33 1.9878466759146977e-16 7.951386703658791e-16 -16.809317204090227 3.2525817896848994 -15.97916574975425 -1.3793457181406746e-33 1.9878466759146977e-16 7.951386703658791e-16 2.0269138100603974 -39.27416446543463 -48.61904575886709 122.57049636628496 -2.522645331260761e-15 -8.635026646565962e-15 0.0 0.0 0.0 0.0 0.0 2.3605679276487037e-16 0.14509568479921153 -9.419242818576667 -5.387709115744237 -2.383088333998321 20.720304598483157 0.5608078027660083 0.0 0.0 3.975693351829396e-16
0.0 0.0 825.4174449602142 26.71694662296182 0.8720799452172211 5.100800145871817 0.0 0.0 -2.1120870931593667e-16 0.21046695929524717 -14.11488495250295 -0.8787524386183853 -0.8646696693087148 26.379527973518975 0.7766575071807622 0.0 0.0 -7.951386703658792e-16 0.0 0.0 -2.1120870931593667e-16 -0.03840915724338492 2.631329691093875 0.9797769924575439 3.299359554688151 -7.747797085268931e-16 7.183487128247517e-16 -3.1805546814635168e-15 -1.987846675914698e-16 -5.517382872562698e-33 -29.54898295074289 13.767547826860488 74.08808162273289 -58.79823589391675 1.1322917323171669e-15 -8.488721577824752e-15 0.0 0.0 -1.5902773407317588e-15 -3.1805546814635168e-15 -1.987846675914698e-16 -5.517382872562698e-33 -16.703729668898433 3.114365522347953 -15.824838940541557 -3.1805546814635168e-15 -1.987846675914698e-16 -5.517382872562698e-33 2.0746836187779136 -38.9294883832691 -48.51306507972979 122.06499322194561 2.782649916415887e-15 1.5403855116334187e-15 0.0 0.0 0.0 0.0 0.0 -2.1120870931593667e-16 0.14041687977418235 -9.545254735747571 -5.353693708197733 -2.355940829866181 20.73033662732344 0.4910615124292692 0.0 0.0 0.0
0.0 0.0 825.4174449602142 26.606227708265358 0.9920879970314932 5.118892366958955 0.0 0.0 6.212020862233431e-18 0.18848030373720057 -14.160004245266293 -0.9509019290726062 -0.8561313803478423 26.42059625627742 0.8390545225735798 0.0 0.0 0.0 0.0 0.0 6.212020862233431e-18 -0.033798353150318934 2.5942018082574743 0.945510794281581 3.2659646265718454 3.860783158292285e-16 -4.0873742990100094e-16 0.0 0.0 -9.93923337957349e-17 -29.36249590991236 13.474308986925143 73.85656023354203 -59.17786157845114 1.5355774047317743e-15 -1.558695794621997e-14 0.0 0.0 -1.5902773407317588e-15 0.0 0.0 -9.93923337957349e-17 -16.584786729327373 3.1784565600399857 -15.723734726540082 0.0 0.0 -9.93923337957349e-17 2.3542259408930213 -38.56954995940832 -48.24457194779421 121.18279809587148 3.4763399433330975e-15 -1.2644597185701023e-14 0.0 0.0 0.0 0.0 0.0 6.212020862233431e-18 0.12743708909312018 -9.701469407387469 -5.312837154153269 -2.320305336317223 20.85153210968246 0.3242715078586669 0.0 0.0 0.0
0.0 0.0 825.4174449602142 26.449533474174697 1.193933936617616 5.170032236143762 0.0 0.0 3.7660376477290174e-16 0.17652571988458543 -14.29104097394602 -1.0827665789105165 -0.8854202949686786 26.19649311382417 0.9624652131989843 6.207055731633036e-33 -1.7890620083232284e-15 3.975693351829396e-16 0.0 0.0 3.7660376477290174e-16 -0.03115176752670285 2.5779061141388664 0.8868985837571924 3.138252350957391 4.1102855168462884e-16 4.858886769743771e-16 -3.1805546814635168e-15 1.987846675914698e-16 9.93923337957349e-17 -28.778125051340876 13.037660456705012 73.56939253233251 -59.93693525571751 -1.189069289520001e-14 1.4254305411266237e-14 0.0 0.0 3.1805546814635168e-15 -3.1805546814635168e-15 1.987846675914698e-16 9.93923337957349e-17 -16.322560732187 3.1136577251318833 -15.665257688794942 -3.1805546814635168e-15 1.987846675914698e-16 9.93923337957349e-17 2.6170558790640595 -37.804903414616696 -47.920708036966175 120.1260293476175 -4.183055211881162e-16 7.099623997074845e-15 0.0 0.0 0.0 0.0 0.0 3.7660376477290174e-16 0.11990753878355793 -9.839484877224384 -5.384482876721409 -2.290272754390636 20.551015265334417 0.34064705627440517 -6.896728590703373e-34 9.93923337957349e-17 7.951386703658792e-16
0.0 0.0 825.4174449602142 26.18113465378686 1.2820726300844512 5.228868431077429 0.0 0.0 2.9196498052497126e-16 0.14924617832773082 -14.251509089853034 -1.26398625979054 -0.9129218283962593 25.997587635413982 1.0674535710623563 0.0 0.0 -3.9756933518293955e-16 0.0 0.0 2.9196498052497126e-16 -0.026706050439005084 2.607631232060571 0.8155688782504075 3.077171209019662 5.988076987930811e-16 8.33443009962753e-17 0.0 0.0 2.981770013872047e-16 -28.322233492904115 12.58204705602326 73.42595224460013 -60.35344330693919 1.089487962735107e-14 -6.0821093001661884e-15 0.0 0.0 -1.5902773407317584e-15 0.0 0.0 2.981770013872047e-16 -16.077440684054658 3.0768087144662872 -15.636097304665428 0.0 0.0 2.981770013872047e-16 2.750090662903084 -36.85789836189145 -47.76590838310643 118.88237795396056 -2.243469348505609e-15 -8.711731741539784e-15 0.0 0.0 0.0 0.0 0.0 2.9196498052497126e-16 0.10239485172156884 -9.917697942820622 -5.38727617017979 -2.26317841817778 20.654624779333982 0.3065170547296992 0.0 0.0 -3.9756933518293955e-16
0.0 0.0 825.4174449602142 26.134172636054245 1.3852663335479483 5.292663018719686 0.0 0.0 -2.981770013872047e-16 0.11536859269847911 -14.346830456570446 -1.3392301302256022 -0.8830051195630875 26.054448389702227 1.0110552349745414 0.0 0.0 -3.975693351829396e-16 0.0 0.0 -2.981770013872047e-16 -0.020814827916387377 2.6512809243359903 0.753363266871092 2.9976036934682035 4.026327361079123e-16 1.88317816898752e-16 -3.1805546814635168e-15 1.987846675914698e-16 -2.981770013872047e-16 -27.817208907239714 12.258573520628456 73.2550515126335 -60.73480855224594 -6.230640176379903e-15 1.0633724916295835e-14 0.0 0.0 0.0 -3.1805546814635168e-15 1.987846675914698e-16 -2.981770013872047e-16 -15.975452204164316 2.7849640245495935 -15.519133066113499 -3.1805546814635168e-15 1.987846675914698e-16 -2.981770013872047e-16 2.6660012703811127 -35.789893764683804 -47.828638874003374 117.67264133817064 -6.233741835535634e-15 -1.1203762495555214e-14 0.0 0.0 0.0 0.0 0.0 -2.981770013872047e-16 0.0803118929952133 -10.15939003121007 -5.4711971635432475 -2.273553398219901 20.917323016086808 0.3541493802005992 3.1805546814635164e-15 0.0 0.0
0.0 0.0 825.4174449602142 25.98063090001065 1.6587807968035473 5.270393336346242 0.0 0.0 1.8636062586700292e-16 0.08822096872418432 -14.626942866638482 -1.2833631406830315 -0.7932467133530274 25.896715359069812 0.944315216226284 3.1805546814635168e-15 -1.1034765745125397e-32 -3.975693351829396e-16 0.0 0.0 1.8636062586700292e-16 -0.015199137545584088 2.585636919652158 0.8480814611100155 3.130890434762043 -3.2583320559867377e-17 -1.1922628542907534e-15 0.0 0.0 1.987846675914698e-16 -27.311202887409014 11.838608045089229 73.13644709309564 -60.98417057067275 2.8242811448659946e-15 -4.796192840702313e-15 0.0 0.0 -3.1805546814635168e-15 0.0 0.0 1.987846675914698e-16 -16.043447495970486 2.5456108446796026 -15.513832600705436 0.0 0.0 1.987846675914698e-16 3.0785827063584748 -34.45481956450071 -47.62375248870431 115.20330902210958 -2.685480347402327e-15 -1.7041488742170884e-15 0.0 0.0 0.0 0.0 0.0 1.8636062586700292e-16 0.06295732636494117 -10.632431766947082 -5.42991057661185 -2.259087585936466 21.309858704277527 0.37708061084354955 -3.4483642953516864e-34 -9.93923337957349e-17 -3.975693351829396e-16
0.0 0.0 825.4174449602142 25.868534709216576 1.8741865192667264 5.352660886826997 0.0 0.0 -1.0684675883041502e-15 0.06623084844721353 -14.876780214187649 -1.410740696774955 -0.8133258584397854 25.971395157601282 1.0476633647017386 0.0 0.0 -7.951386703658792e-16 0.0 0.0 -1.0684675883041502e-15 -0.01066772212349986 2.466377483569176 0.7381502798841586 3.121355055488632 5.414018335230198e-18 1.9871092691373803e-16 0.0 0.0 -4.969616689786745e-16 -27.04896802150227 11.378273140559907 73.03897366171503 -61.03111751216868 3.1752375710220895e-16 5.725027941369286e-15 0.0 0.0 0.0 0.0 0.0 -4.969616689786745e-16 -15.946320027807468 2.408545917425863 -15.388786378259677 0.0 0.0 -4.969616689786745e-16 3.3613973245884434 -33.122369892668 -47.647389555411955 113.34755140578201 -6.98965452018478e-15 1.0630126010397635e-14 0.0 0.0 0.0 0.0 0.0 -1.0684675883041502e-15 0.04755022931480285 -10.932479328141262 -5.504136421357778 -2.280060396936353 21.54418988433765 0.4619567844844327 3.1805546814635164e-15 1.5902773407317582e-15 -4.4139062980501586e-32
0.0 0.0 825.4174449602142 25.700365641883295 2.362890875443584 5.462308963694277 0.0 0.0 3.4787316828507215e-16 0.04738262450149446 -15.444050014052438 -1.5790996913821758 -0.866312112349413 26.231908944374197 1.1676169501947053 -5.517382872562698e-33 -1.5902773407317584e-15 -3.975693351829396e-16 0.0 0.0 3.4787316828507215e-16 -0.0069244007562542014 2.3342278436384114 0.5374151690601655 3.206473772133505 3.807288426448527e-16 -6.072437906485138e-16 0.0 0.0 -9.93923337957349e-17 -26.806185757896547 10.88005681159524 73.09714902554396 -60.8509652545185 -1.6607631132429973e-14 3.1561933526660457e-15 0.0 0.0 1.5902773407317584e-15 0.0 0.0 -9.93923337957349e-17 -15.90025399781958 2.1128247712110375 -15.147181348275724 0.0 0.0 -9.93923337957349e-17 4.02070405010524 -31.774894456292365 -47.61502453330208 111.44315040523911 -5.851280826913668e-15 1.14081700554256e-14 0.0 0.0 0.0 0.0 0.0 3.4787316828507215e-16 0.0345842760272557 -11.606171824202654 -5.590921935696492 -2.33044813342513 21.947474792822995 0.4906302770922487 0.0 0.0 0.0
0.0 0.0 825.4174449602142 25.452192005748394 2.597354053969491 5.472461711246745 0.0 0.0 1.987846675914698e-16 0.03971992976839072 -15.634659830588085 -1.6562866965674083 -0.900662532614703 26.52409966592169 1.1938841910875106 -2.069018577211012e-33 -1.987846675914698e-16 -1.1927080055488188e-15 0.0 0.0 1.987846675914698e-16 -0.005379353348872165 2.199371999640949 0.4346854915286202 3.3252626240643033 -7.746173082172053e-16 7.185238310399496e-16 0.0 0.0 0.0 -26.76666779282529 10.648263759799036 73.10602588880325 -60.7145441220893 -5.155604125938475e-15 2.5092852293809713e-15 0.0 0.0 0.0 0.0 0.0 0.0 -15.881745614777985 1.9633879544919643 -14.928788740567962 0.0 0.0 0.0 5.097516696710311 -30.513063402977387 -47.27594647979157 108.76321009478455 -5.344700834623545e-15 -1.1654098176920046e-14 0.0 0.0 0.0 0.0 0.0 1.987846675914698e-16 0.02939994280087137 -12.003742406206515 -5.559598557853619 -2.3727184602756966 22.524915063996257 0.5827018333402261 0.0 0.0 -3.975693351829396e-16
